<svg width="512" height="512" viewBox="0 0 512 512" xmlns="http://www.w3.org/2000/svg">
  <defs>
    <linearGradient id="bg" x1="0%" y1="0%" x2="100%" y2="100%">
      <stop offset="0%" stop-color="#0f172a" />
      <stop offset="100%" stop-color="#4f46e5" />
    </linearGradient>
    <linearGradient id="accent" x1="0%" y1="0%" x2="0%" y2="100%">
      <stop offset="0%" stop-color="#fef3c7" />
      <stop offset="100%" stop-color="#fbbf24" />
    </linearGradient>
    <filter id="shadow" x="-20%" y="-20%" width="140%" height="140%" color-interpolation-filters="sRGB">
      <feDropShadow dx="0" dy="10" stdDeviation="12" flood-opacity="0.25" />
    </filter>
  </defs>
  <rect width="512" height="512" rx="120" fill="url(#bg)" />
  <g filter="url(#shadow)">
    <path d="M150 110h176l76 76v216c0 22-18 40-40 40H150c-22 0-40-18-40-40V150c0-22 18-40 40-40z" fill="#f8fafc" />
    <path d="M326 110v72c0 8.8 7.2 16 16 16h72" fill="#e0e7ff" />
    <rect x="188" y="206" width="144" height="20" rx="10" fill="#cbd5f5" />
    <rect x="188" y="254" width="144" height="20" rx="10" fill="#cbd5f5" opacity="0.8" />
    <rect x="188" y="302" width="144" height="20" rx="10" fill="#cbd5f5" opacity="0.6" />
    <path d="M206 356l42 42 98-98" fill="none" stroke="url(#accent)" stroke-width="28" stroke-linecap="round" stroke-linejoin="round" />
  </g>
</svg>
